NotoSerifEthiopic-CondensedBold.ufo
<glyph name="ree-ethiopic" format="2">
  <advance width="665"/>
  <unicode hex="122C"/>
  <note>
uni122C
</note>
  <anchor x="341" y="720" name="top"/>
  <outline>
    <contour>
      <point x="296" y="0" type="line"/>
      <point x="452" y="0" type="line"/>
      <point x="452" y="19" type="line"/>
      <point x="388" y="64" type="line"/>
      <point x="296" y="64" type="line"/>
    </contour>
    <component base="nose"/>
    <component base="ballbig" xOffset="245" yOffset="-157"/>
  </outline>
</glyph>
<glyph name="shaa-ethiopic" format="2">
  <advance width="606"/>
  <unicode hex="123B"/>
  <note>
uni123B
</note>
  <anchor x="300" y="845" name="top"/>
  <outline>
    <contour>
      <point x="219" y="569" type="line"/>
      <point x="374" y="569" type="line"/>
      <point x="374" y="733" type="line"/>
      <point x="219" y="733" type="line"/>
    </contour>
    <component base="bonemiddle" xOffset="20" yOffset="12"/>
    <component base="baashort" xOffset="32"/>
  </outline>
</glyph>
<glyph name="sho-ethiopic" format="2">
  <advance width="607"/>
  <unicode hex="123E"/>
  <note>
uni123E
</note>
  <anchor x="305" y="845" name="top"/>
  <outline>
    <contour>
      <point x="228" y="569" type="line"/>
      <point x="383" y="569" type="line"/>
      <point x="383" y="733" type="line"/>
      <point x="228" y="733" type="line"/>
    </contour>
    <component base="boshort" xOffset="19"/>
    <component base="bonemiddle" xOffset="30" yOffset="12"/>
  </outline>
</glyph>
<glyph name="qhi-ethiopic" format="2">
  <advance width="653"/>
  <unicode hex="1252"/>
  <note>
uni1252
</note>
  <anchor x="326" y="845" name="top"/>
  <outline>
    <contour>
      <point x="247" y="0" type="curve"/>
      <point x="466" y="0" type="line"/>
      <point x="466" y="64" type="line"/>
      <point x="433" y="64"/>
      <point x="419" y="78"/>
      <point x="419" y="137" type="curve"/>
      <point x="419" y="723" type="line"/>
      <point x="235" y="723" type="line"/>
      <point x="235" y="98" type="line" smooth="yes"/>
      <point x="235" y="50"/>
      <point x="239" y="20"/>
    </contour>
    <component base="midring" xOffset="10" yOffset="37"/>
    <component base="bonemiddle" xOffset="51" yOffset="12"/>
    <component base="rightdoubleflag" xOffset="410"/>
  </outline>
</glyph>
<glyph name="qhwee-ethiopic" format="2">
  <advance width="681"/>
  <unicode hex="125C"/>
  <note>
uni125C
</note>
  <anchor x="340" y="845" name="top"/>
  <outline>
    <contour>
      <point x="218" y="0" type="line"/>
      <point x="390" y="0" type="line"/>
      <point x="390" y="64" type="line"/>
      <point x="218" y="64" type="line"/>
    </contour>
    <component base="qhee-ethiopic" xOffset="16"/>
    <component base="leftsingleflag" xOffset="18" yOffset="-355"/>
  </outline>
</glyph>
<glyph name="xwee-ethiopic" format="2">
  <advance width="699"/>
  <unicode hex="128C"/>
  <note>
uni128C
</note>
  <anchor x="344" y="720" name="top"/>
  <outline>
    <contour>
      <point x="251" y="0" type="line"/>
      <point x="454" y="0" type="line"/>
      <point x="401" y="64" type="line"/>
      <point x="251" y="64" type="line"/>
    </contour>
    <component base="xee-ethiopic"/>
    <component base="leftsingleflag" xOffset="71" yOffset="-355"/>
  </outline>
</glyph>
<glyph name="wu-ethiopic" format="2">
  <advance width="871"/>
  <unicode hex="12C9"/>
  <note>
uni12C9
</note>
  <anchor x="444" y="714" name="top"/>
  <outline>
    <contour>
      <point x="387" y="202" type="line"/>
      <point x="700" y="202" type="line"/>
      <point x="700" y="266" type="line"/>
      <point x="547" y="266" type="line"/>
    </contour>
    <component base="wa-ethiopic"/>
    <component base="rightdoubleflag" xOffset="636" yOffset="202"/>
  </outline>
</glyph>
<glyph name="za-ethiopic" format="2">
  <advance width="677"/>
  <unicode hex="12D8"/>
  <note>
uni12D8
</note>
  <anchor x="338" y="720" name="top"/>
  <outline>
    <contour>
      <point x="227" y="333" type="line"/>
      <point x="441" y="333" type="line"/>
      <point x="441" y="400" type="line"/>
      <point x="227" y="400" type="line"/>
    </contour>
    <component base="stem1" xOffset="337"/>
    <component base="stem1"/>
  </outline>
</glyph>
<glyph name="dee-ethiopic" format="2">
  <advance width="685"/>
  <unicode hex="12F4"/>
  <note>
uni12F4
</note>
  <anchor x="342" y="724" name="top"/>
  <outline>
    <contour>
      <point x="197" y="184" type="line"/>
      <point x="494" y="184" type="line"/>
      <point x="494" y="247" type="line"/>
      <point x="197" y="247" type="line"/>
    </contour>
    <component base="ballsmall" xOffset="331" yOffset="-168"/>
    <component base="leftsingleflag" yOffset="-171"/>
    <component base="upperloop" xOffset="98"/>
  </outline>
</glyph>
<glyph name="dda-ethiopic" format="2">
  <advance width="591"/>
  <unicode hex="12F8"/>
  <note>
uni12F8
</note>
  <anchor x="295" y="830" name="top"/>
  <outline>
    <contour>
      <point x="230" y="695" type="line"/>
      <point x="394" y="695" type="line"/>
      <point x="394" y="830" type="line"/>
      <point x="230" y="830" type="line"/>
    </contour>
    <component base="da-ethiopic"/>
  </outline>
</glyph>
<glyph name="ddi-ethiopic" format="2">
  <advance width="927"/>
  <unicode hex="12FA"/>
  <note>
uni12FA
</note>
  <anchor x="458" y="830" name="top"/>
  <outline>
    <contour>
      <point x="281" y="695" type="line"/>
      <point x="445" y="695" type="line"/>
      <point x="445" y="830" type="line"/>
      <point x="281" y="830" type="line"/>
    </contour>
    <component base="di-ethiopic"/>
  </outline>
</glyph>
<glyph name="ddee-ethiopic" format="2">
  <advance width="685"/>
  <unicode hex="12FC"/>
  <note>
uni12FC
</note>
  <anchor x="342" y="830" name="top"/>
  <outline>
    <contour>
      <point x="282" y="695" type="line"/>
      <point x="446" y="695" type="line"/>
      <point x="446" y="830" type="line"/>
      <point x="282" y="830" type="line"/>
    </contour>
    <component base="dee-ethiopic"/>
  </outline>
</glyph>
<glyph name="gwee-ethiopic" format="2">
  <advance width="722"/>
  <unicode hex="1314"/>
  <note>
uni1314
</note>
  <anchor x="381" y="714" name="top"/>
  <outline>
    <contour>
      <point x="211" y="0" type="line"/>
      <point x="378" y="0" type="line"/>
      <point x="378" y="64" type="line"/>
      <point x="211" y="64" type="line"/>
    </contour>
    <component base="leftsingleflag" xOffset="25" yOffset="-355"/>
    <component base="gee-ethiopic" xOffset="26"/>
  </outline>
</glyph>
<glyph name="phaa-ethiopic" format="2">
  <advance width="656"/>
  <unicode hex="1333"/>
  <note>
uni1333
</note>
  <anchor x="337" y="815" name="top"/>
  <outline>
    <contour>
      <point x="233" y="675" type="line"/>
      <point x="407" y="675" type="line"/>
      <point x="407" y="815" type="line"/>
      <point x="233" y="815" type="line"/>
    </contour>
    <component base="tsaa-ethiopic"/>
  </outline>
</glyph>
<glyph name="tzo-ethiopic" format="2">
  <advance width="538"/>
  <unicode hex="1346"/>
  <note>
uni1346
</note>
  <anchor x="280" y="715" name="top"/>
  <outline>
    <contour>
      <point x="182" y="497" type="line"/>
      <point x="403" y="497" type="line"/>
      <point x="403" y="561" type="line"/>
      <point x="182" y="561" type="line"/>
    </contour>
    <component base="oPharyngeal-ethiopic"/>
  </outline>
</glyph>
<glyph name="comma-ethiopic" format="2">
  <advance width="316"/>
  <unicode hex="1363"/>
  <note>
uni1363
</note>
  <outline>
    <contour>
      <point x="11" y="565" type="line"/>
      <point x="306" y="565" type="line"/>
      <point x="306" y="702" type="line"/>
      <point x="11" y="702" type="line"/>
    </contour>
    <component base="yizet-ethiopic" xOffset="55" yOffset="72"/>
    <component base="yizet-ethiopic" xOffset="55" yOffset="318"/>
  </outline>
</glyph>
<glyph name="semicolon-ethiopic" format="2">
  <advance width="316"/>
  <unicode hex="1364"/>
  <note>
uni1364
</note>
  <outline>
    <contour>
      <point x="11" y="634" type="line"/>
      <point x="306" y="634" type="line"/>
      <point x="306" y="771" type="line"/>
      <point x="11" y="771" type="line"/>
    </contour>
    <contour>
      <point x="11" y="-19" type="line"/>
      <point x="306" y="-19" type="line"/>
      <point x="306" y="119" type="line"/>
      <point x="11" y="119" type="line"/>
    </contour>
    <component base="yizet-ethiopic" xOffset="54" yOffset="167"/>
    <component base="yizet-ethiopic" xOffset="54" yOffset="400"/>
  </outline>
</glyph>
<glyph name="colon-ethiopic" format="2">
  <advance width="316"/>
  <unicode hex="1365"/>
  <note>
uni1365
</note>
  <outline>
    <contour>
      <point x="11" y="289" type="line"/>
      <point x="306" y="289" type="line"/>
      <point x="306" y="426" type="line"/>
      <point x="11" y="426" type="line"/>
    </contour>
    <component base="yizet-ethiopic" xOffset="55" yOffset="47"/>
    <component base="yizet-ethiopic" xOffset="55" yOffset="470"/>
  </outline>
</glyph>
<glyph name="pwee-ethiopic" format="2">
  <advance width="626"/>
  <unicode hex="138E"/>
  <note>
uni138E
</note>
  <anchor x="313" y="714" name="top"/>
  <outline>
    <contour>
      <point x="188" y="0" type="line"/>
      <point x="352" y="0" type="line"/>
      <point x="352" y="64" type="line"/>
      <point x="188" y="64" type="line"/>
    </contour>
    <component base="pee-ethiopic"/>
    <component base="leftsingleflag" xOffset="2" yOffset="-355"/>
  </outline>
</glyph>
<glyph name="deretHidet-ethiopic" format="2">
  <advance width="670"/>
  <unicode hex="1398"/>
  <note>
uni1398
</note>
  <outline>
    <contour>
      <point x="183" y="0" type="line"/>
      <point x="641" y="0" type="line"/>
      <point x="641" y="124" type="line"/>
      <point x="183" y="124" type="line"/>
    </contour>
    <component base="deret-ethiopic"/>
  </outline>
</glyph>
<glyph name="moa-ethiopic" format="2">
  <advance width="973"/>
  <unicode hex="2D81"/>
  <note>
uni2D81
</note>
  <anchor x="484" y="714" name="top"/>
  <outline>
    <contour>
      <point x="207" y="86" type="line"/>
      <point x="351" y="86" type="line"/>
      <point x="351" y="150" type="line"/>
      <point x="207" y="150" type="line"/>
    </contour>
    <component base="mo-ethiopic" xOffset="37"/>
    <component base="leftdoubleflag" yOffset="86"/>
  </outline>
</glyph>
<glyph name="shoa-ethiopic" format="2">
  <advance width="721"/>
  <unicode hex="2D84"/>
  <note>
uni2D84
</note>
  <anchor x="352" y="845" name="top"/>
  <outline>
    <contour>
      <point x="362" y="569" type="line"/>
      <point x="517" y="569" type="line"/>
      <point x="517" y="733" type="line"/>
      <point x="362" y="733" type="line"/>
    </contour>
    <component base="boshort" xOffset="157"/>
    <component base="bonemiddle" xOffset="163" yOffset="12"/>
    <component base="leftdoubleflag" xOffset="-10" yOffset="299"/>
  </outline>
</glyph>
<glyph name="poa-ethiopic" format="2">
  <advance width="767"/>
  <unicode hex="2D92"/>
  <note>
uni2D92
</note>
  <anchor x="383" y="714" name="top"/>
  <outline>
    <contour>
      <point x="221" y="288" type="line"/>
      <point x="331" y="288" type="line"/>
      <point x="363" y="352" type="line"/>
      <point x="221" y="352" type="line"/>
    </contour>
    <component base="po-ethiopic" xOffset="156"/>
    <component base="leftdoubleflag" yOffset="288"/>
  </outline>
</glyph>
<glyph name="ggwee-ethiopic" format="2">
  <advance width="709"/>
  <unicode hex="2D95"/>
  <note>
uni2D95
</note>
  <anchor x="355" y="798" name="top"/>
  <outline>
    <contour>
      <point x="198" y="0" type="line"/>
      <point x="365" y="0" type="line"/>
      <point x="375" y="64" type="line"/>
      <point x="198" y="64" type="line"/>
    </contour>
    <component base="ggee-ethiopic"/>
    <component base="leftsingleflag" xOffset="3" yOffset="-355"/>
  </outline>
</glyph>
<glyph name="tthaa-ethiopic" format="2">
  <advance width="556"/>
  <unicode hex="AB03"/>
  <note>
uniAB03
</note>
  <anchor x="284" y="767" name="top"/>
  <outline>
    <contour>
      <point x="155" y="380" type="line"/>
      <point x="441" y="380" type="line"/>
      <point x="441" y="444" type="line"/>
      <point x="155" y="444" type="line"/>
    </contour>
    <component base="saa-ethiopic"/>
  </outline>
</glyph>
<glyph name="tthee-ethiopic" format="2">
  <advance width="743"/>
  <unicode hex="AB04"/>
  <note>
uniAB04
</note>
  <anchor x="387" y="767" name="top"/>
  <outline>
    <contour>
      <point x="150" y="271" type="line"/>
      <point x="436" y="271" type="line"/>
      <point x="436" y="335" type="line"/>
      <point x="150" y="335" type="line"/>
    </contour>
    <component base="see-ethiopic"/>
  </outline>
</glyph>
<glyph name="tthe-ethiopic" format="2">
  <advance width="567"/>
  <unicode hex="AB05"/>
  <note>
uniAB05
</note>
  <anchor x="295" y="764" name="top"/>
  <outline>
    <contour>
      <point x="148" y="261" type="line"/>
      <point x="430" y="261" type="line"/>
      <point x="430" y="324" type="line"/>
      <point x="148" y="324" type="line"/>
    </contour>
    <component base="se-ethiopic"/>
  </outline>
</glyph>
<glyph name="ddhaa-ethiopic" format="2">
  <advance width="746"/>
  <unicode hex="AB0B"/>
  <note>
uniAB0B
</note>
  <anchor x="373" y="830" name="top"/>
  <outline>
    <contour>
      <point x="285" y="530" type="line"/>
      <point x="449" y="530" type="line"/>
      <point x="449" y="596" type="line"/>
      <point x="285" y="596" type="line"/>
    </contour>
    <component base="ddaa-ethiopic" xOffset="10"/>
  </outline>
</glyph>
<glyph name="ddhee-ethiopic" format="2">
  <advance width="685"/>
  <unicode hex="AB0C"/>
  <note>
uniAB0C
</note>
  <anchor x="342" y="830" name="top"/>
  <outline>
    <contour>
      <point x="275" y="537" type="line"/>
      <point x="439" y="537" type="line"/>
      <point x="439" y="603" type="line"/>
      <point x="275" y="603" type="line"/>
    </contour>
    <component base="ddee-ethiopic"/>
  </outline>
</glyph>
<glyph name="ddhe-ethiopic" format="2">
  <advance width="721"/>
  <unicode hex="AB0D"/>
  <note>
uniAB0D
</note>
  <anchor x="360" y="830" name="top"/>
  <outline>
    <contour>
      <point x="214" y="505" type="line"/>
      <point x="378" y="505" type="line"/>
      <point x="378" y="571" type="line"/>
      <point x="214" y="571" type="line"/>
    </contour>
    <component base="dde-ethiopic"/>
  </outline>
</glyph>
<glyph name="eightIni-ethiopic" format="2">
  <advance width="583"/>
  <note>
uni1370
</note>
  <outline>
    <contour>
      <point x="223" y="736" type="line"/>
      <point x="603" y="736" type="line"/>
      <point x="603" y="800" type="line"/>
      <point x="223" y="800" type="line"/>
    </contour>
    <contour>
      <point x="223" y="0" type="line"/>
      <point x="603" y="0" type="line"/>
      <point x="603" y="64" type="line"/>
      <point x="223" y="64" type="line"/>
    </contour>
    <component base="eightform" xOffset="9"/>
    <component base="leftsingleflag" xOffset="12" yOffset="381"/>
    <component base="leftsingleflag" yOffset="-355"/>
  </outline>
</glyph>
